<svg xmlns="http://www.w3.org/2000/svg" viewBox="25 20 300.6 110.6"><path d="M84.5 86.3c-3.6 4.4-9.3 7.3-16.5 7.3-10.2 0-16.3-6.2-18.2-13.6 4.7 1.2 9.8 1.9 15.3 1.9 18.4 0 25.4-7.7 25.4-16.6 0-11.2-11.1-18.9-23.4-18.9-14.1 0-23.4 10.2-26 21.6-3.1-1.5-5.8-3.3-8.3-5.1l-5 6.6c3.4 2.5 7.6 5.1 12.7 7.3 1 12 10.1 25.2 27.7 25.2 9.5 0 17.7-3.7 22.7-10.3l-6.4-5.4zM67.1 54.8c7.6 0 14.8 4.4 14.8 10.4 0 3.9-3.5 8.4-16.5 8.4-6 0-11.3-.9-16-2.3 1.2-9.1 7.8-16.5 17.7-16.5zm62.1-8.4c-9.8 0-16.8 5-21.3 12.4-.4-3.8-.5-7.8-.5-11.3h-8.6c0 7.5.3 17.3 2.5 26.2-2.3 9.1-2.5 18.9-2.5 26.8v22.2h8.6v-22.2c0-3.5.1-7.5.5-11.5 4.7 7.6 11.5 12.9 21.4 12.9 16.7 0 25.6-14.9 25.6-28.3-.1-14.3-10.4-27.2-25.7-27.2zm-.3 47c-10.2 0-16.4-8.6-19.2-19.6 2.8-10.6 9-18.8 20.3-18.8 9 0 16.3 7.9 16.3 18.8-.1 10.6-6.8 19.6-17.4 19.6zm34.2-45.9h8.6v53.3h-8.6zm4.2-19.7c-3.4 0-6.1 2.8-6.1 6.2s2.7 6.2 6.1 6.2 6.3-2.8 6.3-6.2-2.9-6.2-6.3-6.2zm55.8 52.9c-2.1 8.5-9 13.2-17.4 12.9-10.8-.5-16.9-8.7-16.9-18.7 0-10.8 6.5-20 17.8-20 7.1 0 13.2 4.2 16 10.7l7.9-3.6c-4.3-9.4-13.4-15.5-23.8-15.5-17.6 0-26.6 14.7-26.6 28.4s9.1 26.4 25.4 27.1c12 .4 22.7-6.3 26.1-19l-8.5-2.3zm67.7-33.2h-8.7v12.4c-4.9-7.8-11.5-13.5-21.6-13.5-16.5 0-25.6 14.3-25.6 27.8 0 15.4 10.2 27.7 25.3 27.7 8.3 0 15.8-4.1 21.9-13.3v12.2h8.7c0-7.6-.4-17.4-2.6-26.5 1.8-7.3 2.6-16.3 2.6-26.8zm-30.6 45.9c-10.1 0-16.8-8.1-16.8-18.3 0-11.7 6.9-20.1 16.9-20.1 9.1 0 16.2 7.2 19.7 19.2-4.5 15.1-13.5 19.2-19.8 19.2zm60.1-1.4c-1.6 1-3.1 1.7-5.3 1.7-4.2 0-6-2.6-6-7.5V28.9h-8.6v59.2c0 8.3 4.8 13.9 13.3 13.9 3.4 0 7.2-1 10.2-3.4l-3.6-6.6z" fill="#f04800"/></svg>